<?xml version="1.0" encoding="utf-8"?>
<!-- Generator: Adobe Illustrator 22.0.1, SVG Export Plug-In . SVG Version: 6.00 Build 0)  -->
<svg version="1.1" id="Layer_1" xmlns="http://www.w3.org/2000/svg" xmlns:xlink="http://www.w3.org/1999/xlink" x="0px" y="0px"
	 viewBox="0 0 250 250" style="enable-background:new 0 0 250 250;" xml:space="preserve">
<style type="text/css">
	.st0{fill:#00008B;}
</style>
<g>
	<path class="st0" d="M178.8,76.4h-34.5v138.1c12.6-2.7,24.3-8,34.5-15.4V76.4z"/>
	<path class="st0" d="M69,112.9H33.8c-0.1,0.9-0.2,1.8-0.3,2.7v18.1c2.5,26,15.9,48.8,35.5,63.9V112.9z"/>
	<path class="st0" d="M105.6,86.1H71.2v113.1c10.1,7.3,21.8,12.6,34.5,15.4V86.1z"/>
	<path class="st0" d="M142.2,43.2h-34.5V215c5.6,1.1,11.3,1.6,17.2,1.6c5.9,0,11.6-0.6,17.2-1.6V43.2z"/>
	<path class="st0" d="M181,127.3v70.3c19.6-15.1,33-37.9,35.5-63.9v-6.4H181z"/>
</g>
</svg>
